<?xml version="1.0" encoding="utf-8"?>
<!-- Generator: Adobe Illustrator 23.0.4, SVG Export Plug-In . SVG Version: 6.00 Build 0)  -->
<svg version="1.1" xmlns="http://www.w3.org/2000/svg" xmlns:xlink="http://www.w3.org/1999/xlink" x="0px" y="0px"
	 viewBox="0 0 595 842" style="enable-background:new 0 0 595 842;" xml:space="preserve">
<style type="text/css">
	.st0{fill-rule:evenodd;clip-rule:evenodd;fill:#FF00FF;}
	.st1{fill-rule:evenodd;clip-rule:evenodd;fill:#FFFFFF;}
</style>
<g id="Guides_For_Artboard">
</g>
<g id="Layer_1">
	<polygon class="st0" points="298.1,358.2 270.3,342.1 242.5,326 242.5,293.9 242.5,261.8 270.3,245.7 298.1,229.6 326,245.7 
		353.8,261.8 353.8,293.9 353.8,326 326,342.1 	"/>
	<path class="st1" d="M298.1,624.8L243,593v-43.6v-83.8v-55.6v-55.6l15.3,8.8l39.9,23.1l39.9-23.1l15.2-8.8v64.6v46.7l78.3-45.2
		V266.2l-133.5-77.1l-133.5,77.1c0,145.1,0,290.2,0,435.3L54.3,765.2c0-187.6,0-375.1,0-562.7l121.9-70.4l121.9-70.4l121.9,70.4
		L542,202.5v140.8V484l-121.9,70.4L298.1,624.8z"/>
</g>
</svg>
